<?xml version="1.0" encoding="utf-8" ?><svg xmlns="http://www.w3.org/2000/svg" xmlns:xlink="http://www.w3.org/1999/xlink" width="1536" height="1024" viewBox="0 0 1536 1024"><path fill="#21B0FE" d="M676.996 160.052C735.639 154.79 761.139 203.539 767.059 203.916C772.384 204.254 787.202 185.95 792.205 181.573C810.447 165.61 833.785 158.194 857.913 159.831C882.332 161.629 905.032 173.077 920.998 191.646C937.172 210.359 945.614 236.902 943.786 261.462C939.329 321.342 885.024 358.733 843.277 394.63C834.719 401.563 772.628 457.78 767.762 458.204C765.786 458.376 762.202 455.406 760.666 454.208C747.265 443.75 734.164 429.943 721.131 418.564L671.229 375.246C650.627 357.375 628.512 339.228 612.708 316.791C602.316 302.299 595.658 285.467 593.324 267.787C590.12 243.311 596.008 216.605 611.283 196.902C627.856 175.527 650.4 163.464 676.996 160.052Z"/><path fill="#FED700" d="M762.903 243.243L763.82 243.199C767.239 243.065 771.491 242.48 774.073 245.192C778.623 249.971 776.259 271.088 776.245 277.827C783.987 277.906 803.398 274.885 808.954 280.409C810.402 281.849 811.012 283.892 810.993 285.898C810.97 288.275 810.274 290.57 808.498 292.223C803.069 297.278 783.474 294.738 776.251 294.704C776.173 314.983 777.008 335.412 776.35 355.666C776.211 359.956 776.432 362.806 773.13 365.907C771.103 366.03 769.073 366.11 767.042 366.148C764.824 366.168 762.268 366.008 760.656 364.266C757.391 360.74 758.93 303.117 758.945 294.641C751.571 294.583 732.993 297.492 727.531 292.607C725.759 291.022 725.025 288.826 725.033 286.489C725.041 284.119 725.631 281.85 727.39 280.172C732.595 275.206 751.963 277.767 758.974 277.86C759.022 268.438 757.257 256.7 759.43 247.609C759.971 245.344 760.978 244.458 762.903 243.243Z"/><path fill="#0080EA" d="M528.039 439.918C596.756 440.908 663.765 461.484 721.202 499.23C737.651 510.005 752.49 522.476 768.087 534.362C779.692 526.689 790.005 516.957 801.405 508.909C839.753 481.411 882.865 461.261 928.557 449.48C943.272 445.769 1000.13 434.831 1012.12 442.008C1015.76 446.498 1014.07 469.666 1014.02 476.554C1013.97 476.866 1013.94 477.185 1013.86 477.492C1013.49 478.851 1012.01 481.144 1010.54 481.532C1003.13 483.503 981.706 481.441 972.523 481.623C957.672 481.919 942.622 483.72 928.049 486.543C885.908 494.752 845.873 511.436 810.371 535.583C804.708 539.452 798.986 543.359 793.6 547.606C787.769 552.202 782.213 558.031 775.535 561.302C771.373 563.34 767.27 563.98 762.864 562.247C751.826 557.907 738.323 544.692 728.289 537.625C713.301 526.976 697.327 517.79 680.586 510.193C644.831 493.347 606.108 483.712 566.629 481.84C557.786 481.495 529.798 483.049 524.222 481.1C523.428 480.328 522.894 479.739 522.569 478.653C521.508 475.108 521.208 445.623 522.921 442.272C524.579 440.782 525.891 440.426 528.039 439.918Z"/><path fill="#FED700" d="M553.966 341.049C584.062 339.144 642.741 374.727 666.121 392.199C700.446 417.85 734.482 449.656 755.268 487.531C759.304 494.887 763.83 503.705 765.023 512.021L764.378 512.846C749.535 501.478 736.266 489.025 720.557 478.572C676.904 449.524 604.791 422.554 552.063 423.055L551.951 370.968C551.935 362.734 551.122 353.611 552.197 345.486C552.412 343.865 553.139 342.438 553.966 341.049Z"/><path fill="#FED700" d="M978.043 340.846C979.795 341.061 981.402 341.669 982.663 342.97C983.733 344.076 983.909 345.698 984.028 347.162C984.688 355.309 984.112 363.895 984.102 372.085L984.041 422.979C966.672 423.233 948.706 426.439 931.793 430.197C870.534 443.811 823.149 469.683 775.573 509.899C774.296 511.173 773.344 512.555 771.561 512.978C770.204 501.557 794.357 466.878 801.447 457.855C837.614 411.833 917.816 348.115 978.043 340.846Z"/><path fill="#0080EA" d="M451.042 710.439L467.863 710.316C467.868 736.747 468.81 763.594 467.433 789.971L454.328 789.908C454.059 776.366 454.21 762.791 454.178 749.245C454.091 744.052 454.032 738.859 454.003 733.665C446.049 750.799 439.893 773.358 430.86 789.132C428.663 790.404 425.739 790.048 423.256 790.072C415.392 771.492 406.998 752.934 399.892 734.059L399.751 789.954L386.206 789.914C385.641 763.523 387.32 736.779 385.759 710.462L402.711 710.293C411.879 728.374 419.693 748.169 427.15 767.045C434.007 747.971 443.115 729.142 451.042 710.439Z"/><path fill="#0080EA" d="M1056.24 623.671C1072.52 619.457 1089.16 629.144 1093.54 645.388C1097.91 661.631 1088.39 678.37 1072.2 682.909C1061.58 685.886 1050.18 682.93 1042.34 675.165C1034.5 667.401 1031.44 656.026 1034.31 645.374C1037.19 634.723 1045.56 626.436 1056.24 623.671ZM1067.17 672.219C1072.45 670.209 1076.3 667.393 1078.63 662.096C1080.94 656.835 1081.01 650.223 1078.85 644.902C1077.25 640.975 1074.19 637.509 1070.24 635.832C1067.14 634.516 1063.8 634.671 1060.52 634.861C1056.14 635.965 1052.95 637.889 1050.54 641.811C1047.34 647.013 1046.83 653.74 1048.35 659.578C1049.51 664.063 1052.31 668.22 1056.38 670.54C1059.8 672.485 1063.39 672.384 1067.17 672.219Z"/><path fill="#0080EA" d="M503.139 602.462C517.931 602.337 540.358 599.481 551.802 610.643C556.24 614.971 558.198 620.725 558.279 626.841C558.37 633.606 556.135 640.222 551.33 645.084C545.354 651.13 537.885 652.631 529.687 652.75L517.008 653.005L516.997 682.544L503.187 682.58L503.139 602.462ZM517.053 641.079C524.808 641.201 533.088 642.093 539.873 637.614C542.662 634.398 545.04 630.194 544.72 625.76C544.534 623.189 542.974 621.027 541.004 619.461C534.431 614.237 524.796 614.807 516.919 615.04C516.956 623.712 516.84 632.412 517.053 641.079Z"/><path fill="#0080EA" d="M980.671 634.095C982.147 632.361 983.6 630.593 985.172 628.946C988.819 625.126 993.565 623.197 998.812 623.121C1004.69 623.036 1010.66 624.173 1014.98 628.45C1024.96 638.331 1021.7 668.685 1021.8 682.681L1007.99 682.574C1008.07 674.066 1010.3 645.762 1005.63 639.479C1003.55 636.689 999.174 634.782 995.711 634.547C993.254 634.38 990.951 635.266 989.222 637.015C982.365 643.947 983.897 657.743 984.021 666.538L984.082 682.491L969.974 682.556C970.737 672.316 972.512 646.306 966.276 638.17C964.833 636.286 962.794 634.874 960.387 634.651C956.865 634.326 952.648 636.154 950.095 638.556C943.135 645.108 945.778 672.336 945.7 682.589L932.156 682.498L932.226 624.128C934.972 624.093 942.062 623.148 944.266 624.298C944.735 624.543 944.702 629.312 944.912 630.324C948.568 629.734 951.693 625.496 955.431 623.905L956.26 623.559C960.57 623.167 965.107 622.829 969.326 624.038C974.952 625.65 977.872 629.192 980.671 634.095Z"/><path fill="#0080EA" d="M664.784 731.666C680.964 727.795 697.233 737.721 701.195 753.883C705.157 770.045 695.325 786.374 679.189 790.428C662.924 794.515 646.44 784.584 642.446 768.292C638.453 752 648.474 735.569 664.784 731.666ZM676.728 779.269C682.068 776.335 685.681 773.217 687.467 767.216C689.098 761.635 688.47 755.635 685.719 750.513C683.616 746.676 680.775 744.828 677.063 742.784C673.674 742.715 670.235 742.532 666.855 742.799C661.702 745.399 658.386 748.235 656.467 753.842C654.616 759.251 654.999 765.693 657.66 770.776C659.637 774.552 663.248 777.852 667.357 779.078C670.233 779.936 673.773 779.546 676.728 779.269Z"/><path fill="#0080EA" d="M1016.9 731.72C1033.18 727.673 1049.64 737.665 1053.56 753.977C1057.48 770.288 1047.37 786.674 1031.03 790.474C1014.87 794.234 998.7 784.249 994.819 768.111C990.938 751.972 1000.8 735.724 1016.9 731.72ZM1024.01 780.049C1029.63 779.186 1033.51 777.874 1036.96 773.081C1040.34 768.385 1041.3 762.25 1040.24 756.621C1039.35 751.825 1036.76 747.216 1032.54 744.593C1029.48 742.695 1026.67 742.413 1023.2 742.214C1018.31 742.963 1014.65 744.266 1011.62 748.448C1008.11 753.309 1007.15 759.645 1008.22 765.473C1009.08 770.143 1011.35 774.507 1015.3 777.282C1017.7 778.965 1021.09 779.971 1024.01 780.049Z"/><path fill="#0080EA" d="M1085.06 731.598C1101.38 727.741 1117.72 737.923 1121.45 754.276C1125.18 770.629 1114.87 786.889 1098.49 790.492C1082.29 794.055 1066.25 783.883 1062.57 767.709C1058.88 751.535 1068.92 735.413 1085.06 731.598ZM1097.09 779.216C1102.4 776.319 1105.74 773.192 1107.48 767.246C1109.04 761.912 1108.62 755.514 1105.89 750.622C1103.84 746.958 1100.29 744.044 1096.24 742.9C1093.25 742.055 1089.72 742.358 1086.68 742.804C1081.48 745.678 1078.16 748.594 1076.47 754.448C1074.89 759.914 1075.46 766.502 1078.28 771.476C1080.35 775.11 1083.96 778.225 1088.07 779.254C1090.86 779.951 1094.26 779.572 1097.09 779.216Z"/><path fill="#0080EA" d="M393.917 601.151C399.728 600.557 406.943 601.44 412.115 604.315C419.308 608.312 421.825 614.23 424.043 621.796L409.822 623.181C409.212 620.846 408.606 618.704 406.904 616.89C404.213 614.023 399.399 612.658 395.543 612.606C392.218 612.561 388.797 613.479 386.473 615.982C384.591 618.009 383.41 621.076 383.567 623.85C384.179 634.647 410.065 636.985 418.623 644.264C422.281 647.375 424.597 651.369 424.976 656.219C425.457 662.358 423.166 670.819 419.034 675.483C413.273 681.987 404.389 683.388 396.191 683.869C389.778 683.629 382.895 682.379 377.543 678.614C370.955 673.98 368.809 667.752 367.556 660.117L381.501 660.11C382.596 663.313 384.031 666.701 386.604 669.007C389.636 671.724 395.046 672.397 399.011 672.02C402.719 671.669 406.798 669.86 409.072 666.832C410.803 664.528 411.398 661.349 410.814 658.542C408.614 647.979 386.313 646.494 378.019 640.751C373.717 637.771 370.416 633.678 369.596 628.374C368.692 622.516 370.574 614.883 374.246 610.212C379.094 604.045 386.452 601.946 393.917 601.151Z"/><path fill="#0080EA" d="M824.902 709.094C832.758 708.661 840.816 708.775 847.533 713.471C853.316 717.515 855.226 723.073 856.346 729.745C853.52 730.07 850.55 730.778 847.721 730.804C842.257 730.852 841.595 726.045 838.223 723.119C834.712 720.074 828.671 720.941 824.337 721.134C821.661 722.658 819.457 724.324 817.62 726.818C816.472 728.378 815.573 729.965 815.955 731.965C817.625 740.708 841.289 744.794 848.355 749.597C852.737 752.577 855.924 756.919 856.881 762.182C857.96 768.121 856.399 775.94 852.867 780.862C848.516 786.926 842.043 789.444 834.938 790.687C826.513 791.102 817.568 790.926 810.505 785.656C804.257 780.994 802.382 774.611 801.344 767.222C805.704 767.26 810.021 767.322 814.368 766.893C815.866 770.512 817.242 774.255 820.503 776.685C823.826 779.162 829.781 779.481 833.787 778.695C836.859 778.092 840.066 776.377 841.781 773.672C843.246 771.36 843.35 767.796 842.715 765.197C840.533 756.268 821.041 754.293 813.66 749.995C808.874 747.209 804.547 743.218 803.254 737.626C801.908 731.807 803.54 724.224 806.85 719.298C811.071 713.015 817.759 710.439 824.902 709.094Z"/><path fill="#0080EA" d="M855.502 623.553C857.747 623.293 860.02 623.219 862.279 623.204C869.898 623.155 877.575 625.575 883.029 631.07C890.153 638.246 891.17 647.47 891.078 657.064C876.494 656.401 861.661 656.806 847.055 657.029C848.498 662.265 850.557 666.606 855.111 669.819C858.593 672.275 862.782 673.407 867.012 672.559C871.754 671.609 874.406 669.019 877.029 665.172L890.189 665.145C889.851 665.989 889.504 666.831 889.15 667.669C886.445 674.036 882.496 678.852 875.894 681.396C867.82 684.506 857.774 684.616 849.878 680.917C843.102 677.741 838.217 671.887 835.78 664.86C832.902 656.561 833.166 646.487 837.029 638.54C840.93 630.513 847.267 626.314 855.502 623.553ZM846.939 647.035C854.188 647.131 861.438 647.174 868.688 647.163L877.884 647.103C875.689 641.893 873.456 636.961 867.818 634.733C864.534 633.436 861.448 633.635 858.051 634.069C852.141 637.542 849.828 641.017 846.939 647.035Z"/><path fill="#0080EA" d="M581.58 623.569C584.157 623.344 586.731 623.167 589.32 623.156C596.095 623.128 602.713 624.525 607.609 629.55C618.204 640.422 614.949 668.248 614.831 682.485L600.988 682.528C601.043 680.483 601.639 677.776 600.443 676.117C595.887 680.758 591.68 683.45 585.002 683.78C578.208 684.115 572.312 681.909 567.324 677.388C565.561 674.632 564.456 671.506 564.096 668.253C563.578 663.124 564.909 657.04 568.317 653.064C576.839 643.125 589.544 648.515 600.21 647.639C601.151 645.782 600.584 644.03 599.96 642.103C598.88 638.772 597.389 635.948 594.046 634.39C591.29 633.106 588.293 633.502 585.564 634.651C581.757 636.255 580.543 638.689 579.122 642.288C574.984 641.909 570.752 642.023 566.597 641.975C567.111 639.65 567.583 637.205 568.454 634.985C570.904 628.739 575.692 626.068 581.58 623.569ZM592.726 672.054C595.489 669.801 599.935 666.291 600.337 662.449C600.524 660.664 599.98 659.209 598.629 658.024C595.542 655.315 588.207 655.993 584.379 656.585C581.303 657.817 578.736 659.034 577.396 662.34C576.626 664.238 576.673 666.225 577.561 668.072C578.62 670.276 580.656 671.942 582.953 672.73C585.795 673.704 589.948 673.15 592.726 672.054Z"/><path fill="#0080EA" d="M760.956 623.511C762.349 623.409 763.743 623.324 765.138 623.255C772.994 622.882 780.859 624.619 786.75 630.143C794.417 637.333 795.774 646.961 796.012 656.932C781.364 656.859 766.715 656.862 752.067 656.942C752.823 660.813 753.628 663.79 756.256 666.879C759.158 670.29 763.129 672.637 767.691 672.827C774.546 673.113 777.779 669.644 782.279 665.252L795.103 665.14C794.388 666.846 793.659 668.552 792.838 670.209C790.027 675.881 784.968 679.908 779.022 681.878C770.927 684.559 761.451 684.46 753.806 680.44C747.292 677.015 742.793 671.092 740.623 664.111C737.962 655.547 738.423 645.159 742.745 637.201C746.798 629.738 753.004 625.853 760.956 623.511ZM774.187 647.161L782.152 647.169C780.267 642.182 778.418 637.123 773.117 634.844C769.546 633.308 765.89 633.69 762.148 634.087C758.928 636.552 754.507 639.7 753.206 643.701C753.524 644.855 753.373 645.327 754.433 646.021C758.57 648.731 769.287 647.254 774.187 647.161Z"/><path fill="#0080EA" d="M931.588 708.34L945.166 708.297C944.8 718.293 945.03 728.327 945.094 738.329C949.604 734.135 955.272 731.079 961.542 730.922C966.943 730.786 972.864 733.119 976.682 736.946C986.464 746.749 983.099 776.047 983.043 789.879L970.328 789.895C970.018 780.401 970.152 770.881 970.156 761.383C970.046 755.863 970.499 750.698 966.613 746.232C964.414 743.704 961.439 741.994 958.042 741.842C955.064 741.708 952.281 742.878 950.151 744.942C941.9 752.935 944.88 779.019 944.986 789.829L931.497 790.007C931.381 762.785 931.411 735.562 931.588 708.34Z"/><path fill="#0080EA" d="M1130.53 623.547C1132.22 623.403 1133.92 623.295 1135.61 623.224C1141.57 622.995 1147.68 624.465 1152.04 628.75C1162.29 638.829 1158.88 668.427 1158.76 682.578L1145.11 682.516C1145.09 671.018 1146.63 658.266 1145.08 646.932C1144.54 642.946 1142.96 638.92 1139.52 636.565C1135.8 634.025 1132.16 634.942 1128.03 635.592C1126.39 636.432 1125.01 637.422 1123.77 638.8C1117.28 646.011 1119.62 672.799 1120.27 682.506L1106.06 682.516L1106.15 624.146C1108.95 624.12 1116.1 623.147 1118.3 624.3C1118.82 624.57 1118.61 629.265 1118.89 630.363C1122.6 629.75 1125.81 625.501 1129.64 623.909L1130.53 623.547Z"/><path fill="#0080EA" d="M652.525 623.645C654.245 623.436 655.972 623.299 657.704 623.233C663.926 623.05 670.051 624.049 674.692 628.548C684.162 637.729 680.982 668.953 681.001 682.464C676.701 682.5 672.398 682.44 668.098 682.421C668.245 672.444 668.64 662.385 668.393 652.412C668.258 646.94 667.616 640.977 663.237 637.112C659.727 634.013 655.625 634.636 651.355 635.06C649.624 635.843 647.972 636.674 646.617 638.039C639.909 644.801 642.367 672.759 642.063 682.572L628.527 682.662C628.386 663.102 628.469 643.542 628.776 623.985C633.453 624.017 638.581 622.873 642.192 626.468C642.791 627.065 642.741 628.198 642.705 629.019C642.699 629.169 642.681 629.319 642.67 629.469C645.908 627.435 649.194 625.522 652.525 623.645Z"/><path fill="#0080EA" d="M738.204 731.538C739.751 731.341 741.298 731.269 742.856 731.266C748.771 731.253 754.489 732.655 758.742 737.018C768.309 746.833 765.031 776.177 765.001 789.893L752.261 789.906C751.944 778.577 753.655 766.28 752.016 755.138C751.396 750.916 749.904 746.728 746.204 744.223C742.673 741.832 738.62 742.646 734.703 743.271C733.513 744.046 732.409 745.037 731.399 746.035C723.976 753.368 726.87 779.217 726.918 789.896L713.22 789.899C712.783 770.699 713.086 751.448 713.11 732.242C716.704 732.202 722.723 731.195 725.85 732.568C725.896 734.517 725.802 736.477 726.43 738.343C730.352 736.202 732.991 733.24 737.379 731.801L738.204 731.538Z"/><path fill="#0080EA" d="M887.629 731.61C895.278 730.979 902.775 730.827 909.603 734.89C916.364 738.913 919.054 744.85 920.98 752.168L909.271 752.683C907.375 749.915 905.638 746.739 902.898 744.715C898.466 741.441 893.931 742.344 888.894 743.141C888.348 743.554 887.807 743.975 887.272 744.403C882.613 748.147 880.349 752.802 879.816 758.726C879.298 764.475 880.844 770.698 884.663 775.119C887.08 777.916 890.468 779.946 894.229 780.065C899.314 780.226 902.736 777.821 906.135 774.437L908.817 768.947C913.103 769.306 917.401 769.453 921.697 769.633C921.124 771.185 920.522 772.727 919.891 774.258C917.117 780.916 911.885 786.896 905.067 789.567C898.042 792.319 889.427 791.787 882.618 788.644C875.626 785.366 870.258 779.398 867.737 772.098C864.931 764.051 865.257 753.929 869.12 746.269C873.076 738.425 879.55 734.336 887.629 731.61Z"/><path fill="#0080EA" d="M576.321 731.623C582.812 730.778 590.943 730.778 596.579 734.574C601.657 737.994 602.763 742.327 603.809 747.939L592.128 748.249C591.904 747.924 591.676 747.602 591.444 747.284C589.369 744.449 587.293 741.758 583.56 741.328C581.167 741.052 578.53 741.935 576.723 743.515C574.983 745.036 574.989 746.451 574.969 748.557C578.251 754.901 591.376 755.509 597.491 759.102C601.166 761.261 604.282 764.235 605.229 768.567C606.226 773.126 604.462 778.637 602.023 782.5C598.861 787.509 594.08 789.354 588.586 790.653C582.833 790.914 576.155 791.372 570.806 788.788C564.513 785.747 562.317 780.496 559.987 774.288C564.011 773.868 568.038 773.481 572.069 773.128C573.105 774.763 574.295 776.58 575.769 777.845C578.263 779.987 582.903 780.442 586.063 780.053C588.585 779.742 590.236 778.857 591.821 776.899C592.567 774.878 592.63 773.361 591.756 771.345C589.287 765.648 578.389 764.813 573.023 762.882C569.007 761.436 564.869 759.112 563.137 754.992C561.461 751.005 562.229 744.828 563.987 740.956C566.493 735.434 571.001 733.596 576.321 731.623Z"/><path fill="#0080EA" d="M524.601 731.524C528.414 731.223 532.15 730.994 535.949 731.584C540.947 732.36 545.745 734.283 548.714 738.601C550.374 741.014 551.695 744.53 551.114 747.462C548.353 748.72 542.48 748.062 539.33 748.123C538.38 746.159 536.749 743.742 534.851 742.591C532.804 741.349 529.931 741.157 527.643 741.714C525.618 742.207 524.552 743.19 523.429 744.883C523.097 746.256 522.77 747.434 523.217 748.824C524.948 754.202 540.198 756.374 545.109 758.905C548.552 760.68 551.428 763.15 552.522 767.022C553.772 771.447 552.812 778.004 550.471 781.912C547.471 786.922 542.088 789.385 536.64 790.661C530.859 790.875 524.059 791.452 518.694 788.773C512.46 785.66 510.568 780.271 508.521 774.026C512.338 773.401 516.325 773.346 520.188 773.113C521.45 775.119 522.724 777.285 524.809 778.535C527.686 780.261 532.297 780.663 535.515 779.807C537.302 779.331 539.066 778.339 539.876 776.599C540.67 774.896 540.307 773.022 539.573 771.364C537.004 765.563 525.677 764.786 520.249 762.757C516.521 761.363 512.788 759.033 511.236 755.194C509.519 750.947 510.131 744.748 512.089 740.644C514.712 735.146 519.193 733.25 524.601 731.524Z"/><path fill="#0080EA" d="M699.697 608.431L712.486 608.403L712.409 624.218L728.977 624.13L728.985 635.933C723.497 635.769 717.986 636.008 712.498 636.134C712.699 644.552 710.731 658.642 713.387 666.315C716.185 674.396 723.486 669.53 728.791 671.976L729.605 674.453C729.806 676.834 730.237 679.319 729.629 681.656C726.463 682.961 722.21 683.098 718.808 683.063C713.463 683.007 707.959 681.817 704.184 677.74C695.914 668.811 698.994 647.527 699.147 635.936L689.512 636.086L689.424 624.11L699.728 624.239L699.697 608.431Z"/><path fill="#0080EA" d="M438.989 608.454L452.167 608.502L452.084 624.199L468.254 624.109L468.017 636.18C462.732 635.805 457.374 635.983 452.076 635.997C452.02 644.727 450.254 657.953 453.155 666.176C455.975 674.171 462.542 668.932 468.24 671.714C469.91 674.074 469.72 675.892 469.993 678.739C470.142 680.568 470.328 680.604 469.094 682.097C466.786 682.861 464.659 683.231 462.227 683.311C455.869 683.52 447.515 681.77 442.872 677.081C436.933 671.084 439.06 644.718 439.272 635.843L429.084 635.995L429.092 624.152L439.182 624.145L438.989 608.454Z"/><path fill="#0080EA" d="M807.367 600.083C811.97 600.099 816.579 599.989 821.181 599.936C821.364 615.865 821.452 631.796 821.446 647.727C821.478 659.26 821.923 671.051 821.038 682.55L807.373 682.647C806.812 655.182 807.205 627.556 807.367 600.083Z"/><path fill="#0080EA" d="M1133.07 708.547L1146.97 708.35L1146.91 789.944L1133.24 789.902L1133.07 708.547Z"/><path fill="#0080EA" d="M903.084 624.13L916.93 624.094L917.032 682.543L903.027 682.529L903.084 624.13Z"/><path fill="#0080EA" d="M616.082 732.181L629.969 732.103L629.945 789.879L615.999 789.938C616.323 770.703 616.062 751.421 616.082 732.181Z"/><path fill="#0080EA" d="M484.193 732.202L496.922 732.173C496.599 751.396 496.955 770.681 496.984 789.91L484.288 789.883L484.193 732.202Z"/><path fill="#0080EA" d="M906.378 600.556C909.052 599.282 912.206 599.549 914.628 601.255C917.05 602.96 918.364 605.84 918.066 608.787C917.769 611.735 915.906 614.294 913.192 615.481C909.088 617.275 904.305 615.446 902.444 611.371C900.584 607.297 902.335 602.483 906.378 600.556Z"/><path fill="#0080EA" d="M620.35 708.537C624.459 706.995 629.05 708.999 630.713 713.063C632.376 717.126 630.508 721.775 626.497 723.557C623.795 724.758 620.653 724.394 618.298 722.607C615.942 720.82 614.744 717.892 615.171 714.966C615.598 712.039 617.582 709.577 620.35 708.537Z"/><path fill="#0080EA" d="M488.581 708.452C492.738 707.153 497.174 709.39 498.602 713.505C500.031 717.62 497.935 722.126 493.868 723.683C491.121 724.735 488.019 724.208 485.774 722.307C483.529 720.406 482.497 717.433 483.081 714.549C483.665 711.665 485.773 709.329 488.581 708.452Z"/></svg>